<svg xmlns="http://www.w3.org/2000/svg" width="20" height="16" viewBox="0 0 20 16">
  <path id="Icon_awesome-eye-slash" data-name="Icon awesome-eye-slash" d="M10,12.5A4.483,4.483,0,0,1,5.534,8.34L2.256,5.807A10.415,10.415,0,0,0,1.109,7.544a1.011,1.011,0,0,0,0,.912A10.023,10.023,0,0,0,10,14a9.707,9.707,0,0,0,2.434-.327l-1.622-1.255A4.5,4.5,0,0,1,10,12.5Zm9.807,1.816-3.455-2.67a10.352,10.352,0,0,0,2.539-3.19,1.011,1.011,0,0,0,0-.912A10.023,10.023,0,0,0,10,2,9.63,9.63,0,0,0,5.4,3.178L1.421.105a.5.5,0,0,0-.7.088L.105.983a.5.5,0,0,0,.088.7l18.386,14.21a.5.5,0,0,0,.7-.088l.614-.79a.5.5,0,0,0-.088-.7ZM14.066,9.878l-1.228-.949a2.961,2.961,0,0,0-3.628-3.81A1.489,1.489,0,0,1,9.5,6a1.458,1.458,0,0,1-.048.312l-2.3-1.778A4.447,4.447,0,0,1,10,3.5,4.5,4.5,0,0,1,14.5,8a4.393,4.393,0,0,1-.434,1.878Z" transform="translate(0 0)" fill="#908f96"/>
</svg>
