<svg xmlns="http://www.w3.org/2000/svg" width="20" height="13.333" viewBox="0 0 20 13.333">
  <path id="Icon_awesome-eye" data-name="Icon awesome-eye" d="M19.879,10.66A11.137,11.137,0,0,0,10,4.5,11.138,11.138,0,0,0,.121,10.66a1.123,1.123,0,0,0,0,1.014A11.137,11.137,0,0,0,10,17.833a11.138,11.138,0,0,0,9.879-6.16A1.123,1.123,0,0,0,19.879,10.66ZM10,16.167a5,5,0,1,1,5-5A5,5,0,0,1,10,16.167Zm0-8.333a3.309,3.309,0,0,0-.879.132A1.661,1.661,0,0,1,6.8,10.288,3.326,3.326,0,1,0,10,7.833Z" transform="translate(0 -4.5)" fill="#908f96"/>
</svg>
